<svg width="38" height="38" viewBox="0 0 38 38" fill="none" xmlns="http://www.w3.org/2000/svg">
<g id="Group 48095835">
<path id="Vector" fill-rule="evenodd" clip-rule="evenodd" d="M17.3141 0.125977H20.671C25.2814 0.125977 27.9756 0.803132 30.3673 2.0854C32.7589 3.36767 34.6463 5.24065 35.9141 7.63233C37.1964 10.024 37.8736 12.7182 37.8736 17.3286V20.6711C37.8736 25.2815 37.1964 27.9757 35.9141 30.3674C34.6319 32.759 32.7589 34.6465 30.3673 35.9143C27.9756 37.1966 25.2814 37.8737 20.671 37.8737H17.3285C12.7181 37.8737 10.0239 37.1966 7.63226 35.9143C5.24064 34.632 3.35325 32.759 2.0854 30.3674C0.803124 27.9757 0.125977 25.2815 0.125977 20.6711V17.3286C0.125977 12.7182 0.803124 10.024 2.0854 7.63233C3.36766 5.24065 5.24064 3.35327 7.63226 2.0854C10.0095 0.803132 12.7181 0.125977 17.3141 0.125977Z" fill="#0068FF"/>
<path id="Vector_2" opacity="0.12" fill-rule="evenodd" clip-rule="evenodd" d="M37.8735 20.1201V20.6717C37.8735 25.2821 37.1965 27.9763 35.9142 30.368C34.6319 32.7596 32.7589 34.647 30.3672 35.9149C27.9756 37.1972 25.2814 37.8743 20.671 37.8743H17.3285C13.556 37.8743 11.0665 37.4209 8.9759 36.5536L5.5293 33.0045L37.8735 20.1201Z" fill="#001A33"/>
<path id="Vector_3" fill-rule="evenodd" clip-rule="evenodd" d="M5.91184 33.1278C7.67725 33.323 9.88444 32.8195 11.4516 32.0587C18.2569 35.8202 28.8948 35.6405 35.334 31.5196C35.5837 31.145 35.817 30.7555 36.0335 30.3516C37.3205 27.9512 38.0001 25.2472 38.0001 20.62V17.2653C38.0001 12.638 37.3205 9.93404 36.0335 7.53367C34.7611 5.13331 32.8668 3.25351 30.4665 1.96656C28.0661 0.679622 25.3621 0 20.7349 0H17.3657C13.4247 0 10.8664 0.496093 8.71693 1.44319C8.59943 1.5484 8.48414 1.65542 8.37128 1.76423C2.06498 7.84343 1.5856 21.0211 6.93312 28.1794C6.93909 28.19 6.94569 28.2006 6.95296 28.2114C7.77719 29.4261 6.98188 31.5517 5.73832 32.7952C5.53588 32.9832 5.60818 33.0989 5.91184 33.1278Z" fill="white"/>
<path id="Vector_4" d="M15.6279 12.9199H8.23686V14.5048H13.3659L8.30883 20.772C8.15037 21.0025 8.03516 21.2187 8.03516 21.7085V22.1119H15.0083C15.3541 22.1119 15.6423 21.8238 15.6423 21.478V20.6279H10.2539L15.0083 14.6632C15.0804 14.5768 15.21 14.4183 15.2677 14.3463L15.2965 14.303C15.5703 13.8996 15.6279 13.5538 15.6279 13.1361V12.9199Z" fill="#0068FF"/>
<path id="Vector_5" d="M25.0355 22.1119H26.0873V12.9199H24.5024V21.5788C24.5024 21.867 24.7329 22.1119 25.0355 22.1119Z" fill="#0068FF"/>
<path id="Vector_6" d="M19.6185 14.9663C17.6302 14.9663 16.0166 16.5799 16.0166 18.5682C16.0166 20.5564 17.6302 22.17 19.6185 22.17C21.6067 22.17 23.2203 20.5564 23.2203 18.5682C23.2348 16.5799 21.6211 14.9663 19.6185 14.9663ZM19.6185 20.6861C18.4515 20.6861 17.5006 19.7352 17.5006 18.5682C17.5006 17.4012 18.4515 16.4503 19.6185 16.4503C20.7854 16.4503 21.7364 17.4012 21.7364 18.5682C21.7364 19.7352 20.7999 20.6861 19.6185 20.6861Z" fill="#0068FF"/>
<path id="Vector_7" d="M30.7698 14.9082C28.7672 14.9082 27.1392 16.5363 27.1392 18.5389C27.1392 20.5416 28.7672 22.1696 30.7698 22.1696C32.7724 22.1696 34.4005 20.5416 34.4005 18.5389C34.4005 16.5363 32.7724 14.9082 30.7698 14.9082ZM30.7698 20.6856C29.5884 20.6856 28.6375 19.7347 28.6375 18.5533C28.6375 17.3719 29.5884 16.421 30.7698 16.421C31.9513 16.421 32.9022 17.3719 32.9022 18.5533C32.9022 19.7347 31.9513 20.6856 30.7698 20.6856Z" fill="#0068FF"/>
<path id="Vector_8" d="M22.3868 22.1119H23.2369V15.1675H21.7529V21.4924C21.7529 21.8238 22.041 22.1119 22.3868 22.1119Z" fill="#0068FF"/>
</g>
</svg>
