<svg xmlns="http://www.w3.org/2000/svg" width="20" height="21" viewBox="0 0 20 21" fill="none">
  <g clip-path="url(#clip0_534_1368)">
    <path d="M4.99984 16.3333C4.99984 17.25 5.74984 18 6.6665 18H13.3332C14.2498 18 14.9998 17.25 14.9998 16.3333V8C14.9998 7.08333 14.2498 6.33333 13.3332 6.33333H6.6665C5.74984 6.33333 4.99984 7.08333 4.99984 8V16.3333ZM7.6415 9.80833C7.9665 9.48333 8.4915 9.48333 8.8165 9.80833L9.99984 10.9917L11.1832 9.80833C11.5082 9.48333 12.0332 9.48333 12.3582 9.80833C12.6832 10.1333 12.6832 10.6583 12.3582 10.9833L11.1748 12.1667L12.3582 13.35C12.6832 13.675 12.6832 14.2 12.3582 14.525C12.0332 14.85 11.5082 14.85 11.1832 14.525L9.99984 13.3417L8.8165 14.525C8.4915 14.85 7.9665 14.85 7.6415 14.525C7.3165 14.2 7.3165 13.675 7.6415 13.35L8.82484 12.1667L7.6415 10.9833C7.3165 10.6667 7.3165 10.1333 7.6415 9.80833ZM12.9165 3.83333L12.3248 3.24167C12.1748 3.09167 11.9582 3 11.7415 3H8.25817C8.0415 3 7.82484 3.09167 7.67484 3.24167L7.08317 3.83333H4.99984C4.5415 3.83333 4.1665 4.20833 4.1665 4.66667C4.1665 5.125 4.5415 5.5 4.99984 5.5H14.9998C15.4582 5.5 15.8332 5.125 15.8332 4.66667C15.8332 4.20833 15.4582 3.83333 14.9998 3.83333H12.9165Z" fill="#EF466F"/>
  </g>
  <defs>
    <clipPath id="clip0_534_1368">
      <rect y="0.5" width="20" height="20" rx="10" fill="white"/>
    </clipPath>
  </defs>
</svg>