<svg xmlns="http://www.w3.org/2000/svg" viewBox="0 0 224.33 90.69"><title>Ulta Beauty logo</title><path d="M488.87,532.36c0-1.85-.06-3.13-.14-4.57h4.66c2.14,0,3.59.75,3.59,2.58s-1.79,2.58-2.89,2.72v0c1.07,0,3.18.75,3.18,2.78,0,2.37-2,3.3-4.14,3.3-1,0-4,0-4.43,0,.09-1.48.14-2.72.14-4.57v-2.26Zm3.56-3.65a3.21,3.21,0,0,0-.87.06c0,.81-.09,1.74-.09,2.32s0,1.13,0,1.68h.81a2,2,0,0,0,2-2.08A1.74,1.74,0,0,0,492.43,528.72Zm-.14,5h-.75c0,.46,0,.93,0,1.62,0,1,0,2.32,0,2.89.32,0,.61,0,1,0a2,2,0,0,0,1.94-2.26A2,2,0,0,0,492.29,533.7Z" transform="translate(-399.83 -466.66)" style="fill:#231f20"/><path d="M514.89,532.36c0-1.85,0-3.13-.14-4.57,1.07,0,6.43,0,6.89,0a12.06,12.06,0,0,0,0,1.45c-1.33-.12-3.59-.12-4.11-.12-.09,1.22,0,2.32,0,3.5,1.56,0,2.72-.06,4.05-.12a5.81,5.81,0,0,0,0,1.42c-1.33-.09-2.69-.14-4.05-.14v2.11c0,.69,0,1.27,0,1.91a32.14,32.14,0,0,0,4.08-.09,12.55,12.55,0,0,0,0,1.48c-.64,0-6.48,0-6.89,0,.12-1.48.14-2.72.14-4.57Z" transform="translate(-399.83 -466.66)" style="fill:#231f20"/><path d="M549.11,539.19c-.61,0-2.61,0-3.07,0-.41-1.1-.81-2.26-1.27-3.36-.75,0-3.5,0-4.11,0a29.78,29.78,0,0,0-1.24,3.39,16.78,16.78,0,0,0-1.71,0c.84-1.82,3.5-7.76,5.07-11.49h1.36C545.66,531.47,547.75,536.53,549.11,539.19Zm-4.72-4.34c-.55-1.36-1-2.66-1.59-4-.61,1.3-1.16,2.61-1.71,4Z" transform="translate(-399.83 -466.66)" style="fill:#231f20"/><path d="M563.18,535.08c0-1.79.06-2.69.06-3.88,0-1.77-.06-2.87-.09-3.42.49,0,1,.06,1.48.06s1,0,1.45-.06a50.66,50.66,0,0,0-.26,5.79c0,4.05,1.27,4.72,3.56,4.72,2.84,0,3-2.87,3-6,0-1.51-.06-3-.14-4.54.32,0,.64.06.93.06a7.7,7.7,0,0,0,.87-.06c-.12,1-.2,3.33-.2,6.22,0,3.82-1.79,5.41-5.24,5.41C565.58,539.43,563.18,538.18,563.18,535.08Z" transform="translate(-399.83 -466.66)" style="fill:#231f20"/><path d="M592.56,530.48a9.41,9.41,0,0,0,0-1.39c-.67,0-2.17,0-3.24.12a6.05,6.05,0,0,0,0-1.45c1.59,0,7.61,0,9.12,0a6.05,6.05,0,0,0,0,1.45c-1-.09-2.52-.09-3.21-.09v5.5c0,1.85.06,3.1.14,4.57-.41,0-2.52,0-2.92,0,.12-1.48.14-2.72.14-4.57Z" transform="translate(-399.83 -466.66)" style="fill:#231f20"/><path d="M619.77,532.74a31.87,31.87,0,0,0,2.69-4.95h1.71c-.81,1.24-2.63,4.4-3.73,6.48,0,.52,0,.93,0,1.48a29.35,29.35,0,0,0,.17,3.47c-.49,0-2.52,0-3,0,.09-1,.23-2.17.23-3.18,0-.52,0-1,0-1.53-1.27-2.23-3.3-5.79-3.85-6.72h3.16c.84,1.62,2.2,4.2,2.69,4.95Z" transform="translate(-399.83 -466.66)" style="fill:#231f20"/><path d="M443.92,473.28c-.26,6.19-.26,14-.26,21.07,0,13,.17,15.95,2.61,19.16s7,5,12.88,5c6.83,0,12.22-3.42,14.1-8.42.67-1.79,1.1-4.31,1.1-11,0-10.65-.09-21.33-.75-32a57.81,57.81,0,0,0,7.76,0l-.29,3.88c-.41,7-.67,23.88-.84,32.13-.17,9.67-3,14.07-8.6,17.51-4,2.46-9.58,3.5-14.15,3.5-10.1,0-22.23-3.1-24.08-15.78a34,34,0,0,1-.2-4.31V481.77c0-4.17-.17-10.54-.41-14.7a82.87,82.87,0,0,0,11.38,0Z" transform="translate(-399.83 -466.66)" style="fill:#231f20"/><path d="M494,489.52c0-3.59,0-4.37-.23-11.64-.12-1.71-.26-9.06-.38-10.59a63.44,63.44,0,0,0,11.72,0c-.58,12.3-.84,22.55-.84,35.08,0,5.7.17,11,.26,15.46H506c2.43,0,14.59,0,19.54-.72a20,20,0,0,0,0,6c-4.31-.14-11.55-.46-16.09-.46-5.41,0-10,.14-16.12.49,0-1.27.61-20.18.61-22.23Z" transform="translate(-399.83 -466.66)" style="fill:#231f20"/><path d="M549.11,512a77.2,77.2,0,0,0,.61,11.14,85.77,85.77,0,0,0-11.9,0c.38-6.17.81-12.45.81-18.64l-.06-22.72c0-3-.09-5.85-.2-9h-4.2c-.75,0-8.83.17-13.17.55a26.94,26.94,0,0,0,.2-6.48c6.66.41,15.83.41,22.35.41,7,0,14.5-.14,22.55-.55a27,27,0,0,0-.06,6.66c-5-.49-11-.58-16.79-.58-.06,3-.14,6-.14,9.12Z" transform="translate(-399.83 -466.66)" style="fill:#231f20"/><path d="M598.84,514.21l-3.53-8.63c-3.62-.14-17.48-.14-20.81,0a170.57,170.57,0,0,0-6.74,17.6,70.9,70.9,0,0,0-7.84,0l9.75-20.93c8.51-18.32,13.4-28.89,15.37-35.2h5.47c4.05,10.77,9,22.14,12.1,29,3.18,7.06,8.74,19.28,12.5,27.15-1.24-.06-11.23-.06-12.74,0Zm-13.89-33.61-8.54,19.94c3,.09,5.79.23,8.71.23,1.68,0,4.23,0,7.76-.23Z" transform="translate(-399.83 -466.66)" style="fill:#231f20"/><path d="M420.68,469.58c-13.14,8.92-20.84,20.09-20.84,33.78,0,31.06,37.49,54,91,54a128.43,128.43,0,0,0,58.79-13.84h-.93c-17.86,5.41-36,7.61-54.59,7.61-53.75,0-90.75-25.24-90.8-48.54,0-12.91,6-24.05,17.4-32.22Z" transform="translate(-399.83 -466.66)" style="fill:#231f20"/></svg>